<svg width="32" height="32" viewBox="0 0 32 32" fill="none" xmlns="http://www.w3.org/2000/svg">
  <rect width="32" height="32" rx="8" fill="url(#gradient)"/>
  <path d="M11 10C11 8.89543 11.8954 8 13 8H19C20.1046 8 21 8.89543 21 10V11C21 12.1046 20.1046 13 19 13H13C11.8954 13 11 12.1046 11 11V10Z" fill="white" fill-opacity="0.9"/>
  <path d="M8 16C8 14.8954 8.89543 14 10 14H22C23.1046 14 24 14.8954 24 16V17C24 18.1046 23.1046 19 22 19H10C8.89543 19 8 18.1046 8 17V16Z" fill="white" fill-opacity="0.7"/>
  <path d="M11 22C11 20.8954 11.8954 20 13 20H19C20.1046 20 21 20.8954 21 22V23C21 24.1046 20.1046 25 19 25H13C11.8954 25 11 24.1046 11 23V22Z" fill="white" fill-opacity="0.5"/>
  <defs>
    <linearGradient id="gradient" x1="0" y1="0" x2="32" y2="32" gradientUnits="userSpaceOnUse">
      <stop stop-color="#3B82F6"/>
      <stop offset="1" stop-color="#2563EB"/>
    </linearGradient>
  </defs>
</svg>